<svg xmlns="http://www.w3.org/2000/svg" version="1.1" xmlns:xlink="http://www.w3.org/1999/xlink" xmlns:svgjs="http://svgjs.dev/svgjs" width="1500" height="1500" viewBox="0 0 1500 1500"><rect width="1500" height="1500" fill="#ffffff"></rect><g transform="matrix(0.6666666666666666,0,0,0.6666666666666666,249.39393939393938,514.7921313294273)"><svg viewBox="0 0 396 186" data-background-color="#ffffff" preserveAspectRatio="xMidYMid meet" height="704" width="1500" xmlns="http://www.w3.org/2000/svg" xmlns:xlink="http://www.w3.org/1999/xlink"><g id="tight-bounds" transform="matrix(1,0,0,1,0.2400000000000091,0.21448204416165595)"><svg viewBox="0 0 395.52 185.5710359116767" height="185.5710359116767" width="395.52"><g><svg viewBox="0 0 397.4975999999999 186.49889109123504" height="185.5710359116767" width="395.52"><g><rect width="397.4975999999999" height="5.712214713034263" x="0" y="102.49159195702738" fill="#16a34a" opacity="1" stroke-width="0" stroke="transparent" fill-opacity="1" class="rect-yte-0" data-fill-palette-color="primary" rx="1%" id="yte-0" data-palette-color="#16a34a"></rect></g><g transform="matrix(1,0,0,1,0.9887999999999693,123.15724832721939)"><svg viewBox="0 0 395.52 63.34164276401564" height="63.34164276401564" width="395.52"><g id="textblocktransform"><svg viewBox="0 0 395.52 63.34164276401564" height="63.34164276401564" width="395.52" id="textblock"><g><svg viewBox="0 0 395.52 63.34164276401564" height="63.34164276401564" width="395.52"><g transform="matrix(1,0,0,1,0,0)"><svg width="395.52" viewBox="2.5 -36.05 230.08 36.849999999999994" height="63.34164276401564" data-palette-color="#16a34a"><path d="M7.05-8.55L2.5-8.55 2.5-26.7 7.05-26.7 7.05-8.55ZM7.05-26.7L2.5-26.7Q2.5-29.45 3.75-31.58 5-33.7 7.25-34.88 9.5-36.05 12.4-36.05L12.4-36.05 12.4-32.1Q9.9-32.1 8.47-30.7 7.05-29.3 7.05-26.7L7.05-26.7ZM2.5-8.6L2.5-8.6 7.05-8.6Q7.05-6 8.47-4.58 9.9-3.15 12.4-3.15L12.4-3.15 12.4 0.8Q9.5 0.8 7.25-0.4 5-1.6 3.75-3.7 2.5-5.8 2.5-8.6ZM22.5-26.25L18.35-25.4Q18.05-28.55 16.48-30.33 14.9-32.1 12.35-32.1L12.35-32.1 12.35-36.05Q16.6-36.05 19.28-33.45 21.95-30.85 22.5-26.25L22.5-26.25ZM18.35-9.85L18.35-9.85 22.5-9.05Q21.95-4.4 19.28-1.8 16.6 0.8 12.35 0.8L12.35 0.8 12.35-3.15Q14.9-3.15 16.48-4.93 18.05-6.7 18.35-9.85ZM44.95 0L40.4 0 40.4-17.2 44.95-17.2 44.95 0ZM34.3 0.75L34.3 0.75 34.65-3Q36.45-3 37.72-3.9 39-4.8 39.7-6.55 40.4-8.3 40.4-10.7L40.4-10.7 42.65-10.8Q42.65-7.4 41.55-4.8 40.45-2.2 38.57-0.73 36.7 0.75 34.3 0.75ZM34.65-3L34.3 0.75Q32.05 0.75 30.2-0.3 28.35-1.35 27.25-3.18 26.15-5 26.15-7.25L26.15-7.25 30.45-7.4Q30.45-5.5 31.72-4.25 33-3 34.65-3L34.65-3ZM30.45-7.4L26.15-7.25Q26.15-9.6 27.32-11.38 28.5-13.15 30.5-14.2 32.5-15.25 35.05-15.25L35.05-15.25 35.3-11.75Q33.2-11.75 31.82-10.53 30.45-9.3 30.45-7.4L30.45-7.4ZM42.75-11.75L35.3-11.75 35.05-15.25 42.75-15.25 42.75-11.75ZM42.65-10.8L40.4-10.7 40.4-17.15 42.65-17.15 42.65-10.8ZM44.95-17.1L44.95-17.1 40.4-17.1Q40.4-19.3 39.07-20.7 37.75-22.1 35.65-22.1L35.65-22.1 35.65-26Q38.35-26 40.42-24.85 42.5-23.7 43.72-21.68 44.95-19.65 44.95-17.1ZM30.95-17.7L30.95-17.7 26.75-18.55Q27.05-20.8 28.27-22.45 29.5-24.1 31.42-25.05 33.35-26 35.7-26L35.7-26 35.7-22.1Q33.85-22.1 32.52-21.03 31.2-19.95 30.95-17.7ZM54.64 0L50.09 0 50.09-25.25 54.64-25.25 54.64 0ZM54.64-16.9L52.59-16.9Q52.59-19.45 53.45-21.48 54.3-23.5 55.77-24.65 57.24-25.8 59.05-25.8L59.05-25.8 58.64-21.55Q56.89-21.55 55.77-20.23 54.64-18.9 54.64-16.9L54.64-16.9ZM63.2-24.2L61.64-20.4Q61.05-20.9 60.22-21.23 59.39-21.55 58.64-21.55L58.64-21.55 59.05-25.8Q60.2-25.8 61.3-25.38 62.39-24.95 63.2-24.2L63.2-24.2ZM71.29-25.2L66.74-25.2 66.74-35.25 71.29-35.25 71.29-25.2ZM71.29-25.25L71.29 0 66.74 0 66.74-25.25 71.29-25.25ZM85.34-17.2L85.34-8.05 80.79-8.05 80.79-17.2 85.34-17.2ZM85.34-17.2L80.79-17.2Q80.79-19.3 79.49-20.63 78.19-21.95 76.14-21.95L76.14-21.95 77.29-26Q79.59-26 81.42-24.85 83.24-23.7 84.29-21.7 85.34-19.7 85.34-17.2L85.34-17.2ZM71.29-17.1L69.29-17.1Q69.29-19.65 70.34-21.68 71.39-23.7 73.19-24.85 74.99-26 77.29-26L77.29-26 76.14-21.95Q73.99-21.95 72.64-20.6 71.29-19.25 71.29-17.1L71.29-17.1ZM80.79-8.05L80.79-8.05 85.34-8.05Q85.34-5.55 84.29-3.55 83.24-1.55 81.42-0.4 79.59 0.75 77.29 0.75L77.29 0.75 76.14-3.3Q78.19-3.3 79.49-4.63 80.79-5.95 80.79-8.05ZM69.29-8.2L69.29-8.2 71.29-8.2Q71.29-6 72.64-4.65 73.99-3.3 76.14-3.3L76.14-3.3 77.29 0.75Q74.99 0.75 73.19-0.43 71.39-1.6 70.34-3.63 69.29-5.65 69.29-8.2ZM107.84-8.95L103.29-8.95 103.29-16.3 107.84-16.3 107.84-8.95ZM93.79-8.95L89.24-8.95 89.24-16.3 93.79-16.3 93.79-8.95ZM98.69-22.05L98.39-22.05 98.39-26 98.69-26 98.69-22.05ZM98.69 0.75L98.39 0.75 98.39-3.2 98.69-3.2 98.69 0.75ZM93.79-16.25L89.24-16.25Q89.24-19.05 90.47-21.25 91.69-23.45 93.77-24.73 95.84-26 98.49-26L98.49-26 98.49-22.05Q96.29-22.05 95.04-20.55 93.79-19.05 93.79-16.25L93.79-16.25ZM107.84-16.25L107.84-16.25 103.29-16.25Q103.29-19.05 102.07-20.55 100.84-22.05 98.59-22.05L98.59-22.05 98.59-26Q101.24-26 103.32-24.73 105.39-23.45 106.62-21.25 107.84-19.05 107.84-16.25ZM89.24-9L89.24-9 93.79-9Q93.79-6.25 95.04-4.73 96.29-3.2 98.49-3.2L98.49-3.2 98.49 0.75Q95.84 0.75 93.77-0.53 91.69-1.8 90.47-4 89.24-6.2 89.24-9ZM103.29-9L107.84-9Q107.84-6.2 106.62-4 105.39-1.8 103.32-0.53 101.24 0.75 98.59 0.75L98.59 0.75 98.59-3.2Q100.84-3.2 102.07-4.73 103.29-6.25 103.29-9L103.29-9ZM117.04 0L112.49 0 112.49-25.25 117.04-25.25 117.04 0ZM131.09 0L126.54 0 126.54-17.2 131.09-17.2 131.09 0ZM131.09-17.2L126.54-17.2Q126.54-19.3 125.24-20.63 123.94-21.95 121.89-21.95L121.89-21.95 123.04-26Q125.34-26 127.16-24.85 128.99-23.7 130.04-21.7 131.09-19.7 131.09-17.2L131.09-17.2ZM117.04-17.1L115.04-17.1Q115.04-19.65 116.09-21.68 117.14-23.7 118.94-24.85 120.74-26 123.04-26L123.04-26 121.89-21.95Q119.74-21.95 118.39-20.6 117.04-19.25 117.04-17.1L117.04-17.1ZM153.49-31.3L132.74-31.3 132.74-35.25 153.49-35.25 153.49-31.3ZM145.39 0L140.84 0 140.84-35.25 145.39-35.25 145.39 0ZM159.78 0L155.23 0 155.23-25.25 159.78-25.25 159.78 0ZM159.78-16.9L157.73-16.9Q157.73-19.45 158.58-21.48 159.43-23.5 160.91-24.65 162.38-25.8 164.18-25.8L164.18-25.8 163.78-21.55Q162.03-21.55 160.91-20.23 159.78-18.9 159.78-16.9L159.78-16.9ZM168.33-24.2L166.78-20.4Q166.18-20.9 165.36-21.23 164.53-21.55 163.78-21.55L163.78-21.55 164.18-25.8Q165.33-25.8 166.43-25.38 167.53-24.95 168.33-24.2L168.33-24.2ZM188.53 0L183.98 0 183.98-17.2 188.53-17.2 188.53 0ZM177.88 0.75L177.88 0.75 178.23-3Q180.03-3 181.31-3.9 182.58-4.8 183.28-6.55 183.98-8.3 183.98-10.7L183.98-10.7 186.23-10.8Q186.23-7.4 185.13-4.8 184.03-2.2 182.16-0.73 180.28 0.75 177.88 0.75ZM178.23-3L177.88 0.75Q175.63 0.75 173.78-0.3 171.93-1.35 170.83-3.18 169.73-5 169.73-7.25L169.73-7.25 174.03-7.4Q174.03-5.5 175.31-4.25 176.58-3 178.23-3L178.23-3ZM174.03-7.4L169.73-7.25Q169.73-9.6 170.91-11.38 172.08-13.15 174.08-14.2 176.08-15.25 178.63-15.25L178.63-15.25 178.88-11.75Q176.78-11.75 175.41-10.53 174.03-9.3 174.03-7.4L174.03-7.4ZM186.33-11.75L178.88-11.75 178.63-15.25 186.33-15.25 186.33-11.75ZM186.23-10.8L183.98-10.7 183.98-17.15 186.23-17.15 186.23-10.8ZM188.53-17.1L188.53-17.1 183.98-17.1Q183.98-19.3 182.66-20.7 181.33-22.1 179.23-22.1L179.23-22.1 179.23-26Q181.93-26 184.01-24.85 186.08-23.7 187.31-21.68 188.53-19.65 188.53-17.1ZM174.53-17.7L174.53-17.7 170.33-18.55Q170.63-20.8 171.86-22.45 173.08-24.1 175.01-25.05 176.93-26 179.28-26L179.28-26 179.28-22.1Q177.43-22.1 176.11-21.03 174.78-19.95 174.53-17.7ZM197.48-8.9L192.93-8.9 192.93-16.35 197.48-16.35 197.48-8.9ZM197.48-16.3L192.93-16.3Q192.93-19.1 194.15-21.3 195.38-23.5 197.45-24.78 199.53-26.05 202.18-26.05L202.18-26.05 202.18-22.1Q199.98-22.1 198.73-20.6 197.48-19.1 197.48-16.3L197.48-16.3ZM211.08-18.6L206.83-17.75Q206.58-20 205.25-21.05 203.93-22.1 202.13-22.1L202.13-22.1 202.13-26.05Q204.48-26.05 206.38-25.1 208.28-24.15 209.53-22.48 210.78-20.8 211.08-18.6L211.08-18.6ZM192.93-8.95L192.93-8.95 197.48-8.95Q197.48-6.2 198.73-4.67 199.98-3.15 202.18-3.15L202.18-3.15 202.18 0.8Q199.53 0.8 197.45-0.48 195.38-1.75 194.15-3.95 192.93-6.15 192.93-8.95ZM206.83-7.5L206.83-7.5 211.08-6.65Q210.78-4.5 209.53-2.8 208.28-1.1 206.38-0.15 204.48 0.8 202.13 0.8L202.13 0.8 202.13-3.15Q203.93-3.15 205.25-4.23 206.58-5.3 206.83-7.5ZM232.58 0L227.83 0 218.88-13.95 223.23-15.4 232.58 0ZM231.98-25.25L219.03-9 215.53-11.35 226.48-25.25 231.98-25.25ZM219.68 0L215.13 0 215.13-36 219.68-36 219.68 0Z" opacity="1" transform="matrix(1,0,0,1,0,0)" fill="#16a34a" class="wordmark-text-0" data-fill-palette-color="primary" id="text-0"></path></svg></g></svg></g></svg></g></svg></g><g transform="matrix(1,0,0,1,161.85659472159807,0)"><svg viewBox="0 0 73.78441055680375 87.53815029986963" height="87.53815029986963" width="73.78441055680375"><g><svg xmlns="http://www.w3.org/2000/svg" xmlns:xlink="http://www.w3.org/1999/xlink" version="1.1" x="0" y="0" viewBox="13.999 7.020164168627967 73.31381683484008 86.97983583137203" enable-background="new 0 0 100 100" xml:space="preserve" height="87.53815029986963" width="73.78441055680375" class="icon-icon-0" data-fill-palette-color="accent" id="icon-0"><path d="M13.999 56.01L14.005 94H18.005L18.001 68.88H30.001L30.005 93.94H34.005L33.999 56.01zM30 60.01L30.001 66.88H18.001L18 60.01z" fill="#22c55e" data-fill-palette-color="accent"></path><path d="M40.02 46.003L40.026 94H44.026L44.022 58.872H56.022L56.027 93.939H60.027L60.02 46.003zM56.02 50.003L56.021 56.872H44.021L44.02 50.003z" fill="#22c55e" data-fill-palette-color="accent"></path><path d="M65.998 66.019L66.003 94H70.003L70 78.888H82L82.003 93.94H86.003L85.998 66.019zM81.998 70.019L82 76.888H70L69.999 70.019z" fill="#22c55e" data-fill-palette-color="accent"></path><path d="M71.587 25.482C78.868 28.668 83.746 25.002 83.756 19.165 90.729 15.371 86.73 5.624 77.989 9.007V9.006C73.24 5.786 69.497 7.45 69.497 7.45 67.724 7.907 66.059 9.257 65.034 12.285 57.121 10.861 53.864 15.831 54.28 19.172 52.694 19.224 48.754 19.665 46.388 22.843 40.748 30.416 46.427 38.856 46.427 38.856L46.426 38.852C47.595 41.047 49.217 43.456 49.217 43.456H53.02C53.291 41.816 53 37.71 54.565 36.568 60.248 34.125 58.977 29.518 58.977 29.518 64.686 33.554 71.265 30.306 71.587 25.482" fill="#22c55e" data-fill-palette-color="accent"></path></svg></g></svg></g><g></g></svg></g><defs></defs></svg><rect width="395.52" height="185.5710359116767" fill="none" stroke="none" visibility="hidden"></rect></g></svg></g></svg>